<svg width="500" height="500" viewBox="0 0 500 500" fill="none" xmlns="http://www.w3.org/2000/svg">
<rect width="500" height="500" fill="#CACACA"/>
<path d="M273.644 195.384C273.725 195.436 273.801 195.494 273.871 195.558L282.229 203.121L293.562 203.896C294.08 203.935 294.696 204.29 294.795 204.936L310.18 299.828L266.632 308.418L186.25 294.687C186.25 294.687 196.563 221.953 196.953 219.377C197.47 215.992 197.597 215.883 201.543 214.752L214.265 211.155C216.985 200.634 225.669 179.916 243.838 179.916C246.21 179.916 248.959 181.079 251.183 183.752L251.842 183.733C259.64 183.733 264.075 189.797 266.589 196.391L270.804 195.203C271.37 195.048 272.773 194.841 273.637 195.384H273.644ZM251.849 225.835C251.849 225.835 248.215 223.917 240.87 223.917C221.801 223.917 212.352 235.529 212.352 247.528C212.352 261.788 227.957 262.176 227.957 270.849C227.957 272.948 226.328 275.822 222.325 275.822C216.205 275.822 208.952 270.139 208.952 270.139L205.262 281.273C205.262 281.273 212.317 289.101 226.115 289.101C237.611 289.101 246.14 281.209 246.14 268.951C246.14 253.367 227.121 250.822 227.121 244.17C227.121 242.943 227.546 238.112 236.003 238.112C239.635 238.164 243.209 238.944 246.473 240.398L251.849 225.835V225.835ZM262.155 197.638C260.434 192.839 257.756 188.667 253.733 188.209C254.732 190.824 255.362 194.124 255.362 198.219L255.355 199.562L262.155 197.638V197.638ZM248.746 189.022C244.312 190.753 239.24 195.352 236.542 204.871L250.588 200.906V200.189C250.588 195.242 249.865 191.573 248.746 189.016V189.022ZM243.349 184.359C230.287 184.359 222.956 199.989 219.867 209.579L230.967 206.441C233.609 193.873 239.85 187.582 245.679 185.083C244.998 184.634 244.182 184.386 243.342 184.372L243.349 184.359Z" fill="white"/>
</svg>
